<?xml version="1.0" encoding="UTF-8"?>
<svg width="10px" height="16px" viewBox="0 0 10 16" version="1.1" xmlns="http://www.w3.org/2000/svg" xmlns:xlink="http://www.w3.org/1999/xlink">
    <title>facebookIcon</title>
    <g id="Mailing" stroke="none" stroke-width="1" fill="none" fill-rule="evenodd">
        <g id="Mail---KIT" transform="translate(-825, -631)" fill="#FFFFFF" fill-rule="nonzero">
            <g id="Group-14" transform="translate(433, 618)">
                <g id="Group-3" transform="translate(392, 11)">
                    <g id="facebookIcon" transform="translate(0, 2)">
                        <path d="M6.34260302,1.02729719 C6.36131276,1.02729719 6.38002251,1.02729719 6.39873225,1.02729719 C6.94131481,1.03344867 7.49013395,1.05805459 8.03271651,1.07650903 C8.13250181,1.08266052 8.2322871,1.09496348 8.33830898,1.10111496 C8.39443821,1.10111496 8.41314796,1.12572088 8.41314796,1.1810842 C8.41314796,1.50096117 8.41314796,1.82083814 8.41314796,2.14071511 C8.41314796,2.5159554 8.41314796,2.89119569 8.41314796,3.26643599 C8.41314796,3.33410227 8.39443821,3.35255671 8.3320724,3.35255671 C8.3320724,3.35255671 8.3320724,3.35255671 8.3320724,3.35255671 C8.09508232,3.35255671 7.86432882,3.34640523 7.62733873,3.34640523 C7.44647788,3.34640523 7.27185361,3.34640523 7.09099276,3.35255671 C6.90389532,3.35870819 6.71056131,3.37716263 6.52970045,3.41407151 C6.17421533,3.48788927 5.96840815,3.72164552 5.89356918,4.06612841 C5.86238627,4.20761246 5.84991311,4.3490965 5.84991311,4.49058055 C5.84367653,5.01345636 5.84991311,5.53633218 5.84991311,6.059208 C5.84991311,6.07766244 5.84991311,6.0899654 5.85614969,6.11457132 C5.8873326,6.11457132 5.9185155,6.11457132 5.94346183,6.11457132 C6.41744199,6.11457132 6.89142216,6.11457132 7.36540233,6.11457132 C7.65228506,6.11457132 7.94540437,6.11457132 8.2322871,6.11457132 C8.3320724,6.11457132 8.3320724,6.11457132 8.31959924,6.20684352 C8.26347001,6.6189927 8.20734078,7.02499039 8.15744813,7.43713956 C8.11379206,7.78162245 8.07013599,8.12610534 8.02647993,8.46443676 C8.0015336,8.6059208 8.00777018,8.61207228 7.8705654,8.61207228 C7.22196096,8.61207228 6.5795931,8.61207228 5.93098866,8.61207228 C5.90604234,8.61207228 5.87485943,8.61207228 5.84367653,8.61207228 C5.84367653,8.64898116 5.84367653,8.67973856 5.84367653,8.71049596 C5.84367653,10.7466359 5.84367653,12.7827759 5.84367653,14.8189158 C5.84367653,14.8681276 5.84367653,14.9173395 5.84367653,14.9665513 C4.97055517,14.9665513 4.09743381,14.9665513 3.22431245,14.9665513 C3.22431245,14.9296424 3.23054903,14.898885 3.23054903,14.8619762 C3.23054903,12.8012303 3.23054903,10.7466359 3.23054903,8.68589004 C3.23054903,8.66128412 3.23054903,8.6366782 3.23054903,8.6059208 C3.19312954,8.6059208 3.16818322,8.6059208 3.14323689,8.6059208 C2.47592271,8.6059208 1.81484511,8.6059208 1.14753093,8.6059208 C1.05398221,8.6059208 1.05398221,8.6059208 1.05398221,8.51980008 C1.05398221,7.75086505 1.05398221,6.98193003 1.05398221,6.20684352 C1.05398221,6.13917724 1.07269196,6.1207228 1.14129435,6.1207228 C1.14129435,6.1207228 1.14129435,6.1207228 1.14129435,6.1207228 C1.51548922,6.1207228 1.89592067,6.1207228 2.27011553,6.1207228 C2.55699827,6.1207228 2.83764442,6.1207228 3.12452715,6.1207228 C3.13076373,6.1207228 3.13700031,6.1207228 3.14323689,6.1207228 C3.16818322,6.1207228 3.19936612,6.1207228 3.23678561,6.1207228 C3.23678561,6.09611688 3.23678561,6.07151096 3.23678561,6.04690504 C3.23678561,5.4071511 3.23054903,4.76739715 3.24302219,4.12764321 C3.24925877,3.61091888 3.34904407,3.11264898 3.57979757,2.64513649 C3.89162663,2.01153403 4.37184338,1.55632449 5.03292098,1.28565936 C5.44453533,1.11341792 5.8873326,1.02729719 6.34260302,1.02729719 M6.34260302,0 C5.74389123,0 5.16388918,0.110726644 4.62130662,0.338331411 C3.71700236,0.707420223 3.04968818,1.3348712 2.62560066,2.20222991 C2.34495451,2.78046905 2.19527656,3.42022299 2.18903998,4.11534025 C2.1828034,4.4413687 2.1828034,4.76739715 2.1828034,5.09957709 C1.83355485,5.09957709 1.49054289,5.09957709 1.14129435,5.09957709 C0.735916574,5.09957709 0.473980167,5.27181853 0.324302219,5.41945406 C0.174624272,5.56708958 0,5.82545175 0,6.21914648 C0,6.80968858 0,7.3940792 0,7.9846213 L0,8.52595156 C0,9.18415994 0.467743585,9.64552095 1.13505777,9.64552095 L2.17656682,9.64552095 L2.17656682,14.8681276 L2.17656682,14.9357939 C2.16409366,15.2126105 2.27011553,15.4894271 2.46968613,15.6862745 C2.66925673,15.8892734 2.93742972,16 3.21807587,16 L5.83743995,16 C6.41120541,16 6.87271242,15.5447905 6.878949,14.9850058 L6.878949,14.9419454 L6.878949,14.8250673 L6.878949,9.65167243 L7.86432882,9.65167243 C8.52540642,9.65167243 8.96820368,9.26412918 9.04304265,8.62437524 C9.08669872,8.27374087 9.13035479,7.93540946 9.17401086,7.59707805 L9.26755957,6.90811226 L9.34239855,6.36678201 C9.38605461,6.01614764 9.30497906,5.71472511 9.08669872,5.47481738 C8.87465496,5.23490965 8.58153565,5.11188005 8.21357736,5.11188005 L7.34669258,5.11188005 L6.87271242,5.11188005 C6.87271242,4.92118416 6.87271242,4.72433679 6.87271242,4.53364091 C6.87271242,4.49673203 6.87271242,4.45982314 6.878949,4.42291426 C6.94755139,4.41676278 7.02239036,4.4106113 7.09722934,4.40445982 C7.26561703,4.39830834 7.4402413,4.39830834 7.60862899,4.39830834 C7.78325326,4.39830834 7.95787753,4.39830834 8.13250181,4.39830834 L8.30712608,4.39830834 C8.73745018,4.39830834 8.99938658,4.1953095 9.12411821,4.07843137 C9.24261325,3.95540177 9.44842043,3.6970396 9.44218384,3.27873895 C9.44218384,3.00192234 9.44218384,2.72510573 9.44218384,2.44828912 L9.44218384,2.15916955 L9.44218384,1.91311034 C9.44218384,1.67935409 9.44218384,1.44559785 9.44218384,1.2118416 C9.44842043,0.60899654 8.98691342,0.129181084 8.37572847,0.0984236832 C8.34454556,0.0984236832 8.31959924,0.092272203 8.28841633,0.092272203 C8.20734078,0.0861207228 8.13250181,0.0738177624 8.05142625,0.0738177624 L7.67723138,0.061514802 C7.27185361,0.0246059208 6.84152951,0.0061514802 6.41120541,0 L6.34260302,0 L6.34260302,0 Z" id="Shape"></path>
                    </g>
                </g>
            </g>
        </g>
    </g>
</svg>