<?xml version="1.0" encoding="UTF-8"?>
<svg width="18px" height="16px" viewBox="0 0 18 16" version="1.1" xmlns="http://www.w3.org/2000/svg" xmlns:xlink="http://www.w3.org/1999/xlink">
    <title>instagramIcon</title>
    <g id="Mailing" stroke="none" stroke-width="1" fill="none" fill-rule="evenodd">
        <g id="Mail---KIT" transform="translate(-875, -631)" fill="#FFFFFF" fill-rule="nonzero">
            <g id="Group-14" transform="translate(433, 618)">
                <g id="Group-3" transform="translate(392, 11)">
                    <g id="iconosRedes" transform="translate(0, 2)">
                        <g id="instagramIcon" transform="translate(50.9475, 0)">
                            <path d="M13.5129327,16 L3.4832476,16 C1.56390708,16 0,14.5107692 0,12.6830769 L0,3.31692308 C0,1.48923077 1.56390708,0 3.4832476,0 L13.5129327,0 C15.4322732,0 16.9961803,1.48923077 16.9961803,3.31692308 L16.9961803,12.6769231 C16.9961803,14.5107692 15.4322732,16 13.5129327,16 Z M3.4832476,1.05846154 C2.17783755,1.05846154 1.11153727,2.07384615 1.11153727,3.31692308 L1.11153727,12.6769231 C1.11153727,13.92 2.17783755,14.9353846 3.4832476,14.9353846 L13.5129327,14.9353846 C14.8183427,14.9353846 15.884643,13.92 15.884643,12.6769231 L15.884643,3.31692308 C15.884643,2.07384615 14.8183427,1.05846154 13.5129327,1.05846154 L3.4832476,1.05846154 Z" id="Shape"></path>
                            <path d="M8.02597403,12.2352941 C5.68441394,12.2352941 3.77692895,10.3339822 3.77692895,8 C3.77692895,5.66601777 5.68441394,3.76470588 8.02597403,3.76470588 C10.3675341,3.76470588 12.2750191,5.66601777 12.2750191,8 C12.2750191,10.3339822 10.3675341,12.2352941 8.02597403,12.2352941 Z M8.02597403,4.812865 C6.26521866,4.812865 4.82849119,6.24494287 4.82849119,8 C4.82849119,9.75505713 6.26521866,11.187135 8.02597403,11.187135 C9.78672939,11.187135 11.2234569,9.75505713 11.2234569,8 C11.2234569,6.24494287 9.78672939,4.812865 8.02597403,4.812865 Z" id="Shape"></path>
                            <ellipse id="Oval" cx="12.2750191" cy="3.76470588" rx="1" ry="1"></ellipse>
                        </g>
                    </g>
                </g>
            </g>
        </g>
    </g>
</svg>