<?xml version="1.0" encoding="UTF-8"?>
<svg width="21px" height="16px" viewBox="0 0 21 16" version="1.1" xmlns="http://www.w3.org/2000/svg" xmlns:xlink="http://www.w3.org/1999/xlink">
    <title>twitterIcon</title>
    <g id="Mailing" stroke="none" stroke-width="1" fill="none" fill-rule="evenodd">
        <g id="Mail---KIT" transform="translate(-846, -631)" fill="#FFFFFF" fill-rule="nonzero">
            <g id="Group-14" transform="translate(433, 618)">
                <g id="Group-3" transform="translate(392, 11)">
                    <g id="iconosRedes" transform="translate(0, 2)">
                        <g id="twitterIcon" transform="translate(21.6352, 0)">
                            <path d="M13.4291309,1.18566251 C13.4425095,1.18566251 13.4558882,1.18566251 13.4692668,1.18566251 C14.4994219,1.19855014 15.4292372,1.62384213 16.0781011,2.30044301 C16.894198,2.1522352 17.670159,1.87515103 18.3658481,1.48852195 C18.091586,2.29399919 17.5163046,2.96415626 16.7671009,3.38300443 C17.4962367,3.30567861 18.1852365,3.12525171 18.8341004,2.86105518 C18.3457802,3.5505437 17.7303628,4.14981877 17.0279844,4.63310511 C17.0346737,4.78131293 17.0346737,4.92952074 17.0346737,5.07772855 C16.9878485,9.6141764 13.368927,14.8014499 6.84684128,14.8014499 C6.80670537,14.8014499 6.75988014,14.8014499 6.71974423,14.8014499 C4.69288065,14.7821184 2.81318209,14.1892872 1.2411922,13.1904954 C1.52214358,13.2227145 1.80978429,13.2420459 2.09742499,13.2484897 C2.12418227,13.2484897 2.15093954,13.2484897 2.17769682,13.2484897 C3.82995854,13.2484897 5.34843389,12.7136528 6.57257921,11.8115183 C5.00058932,11.7664116 3.68948285,10.7547322 3.24798781,9.37575513 C3.46873533,9.42086186 3.68948285,9.44019331 3.923609,9.44663713 C3.93698764,9.44663713 3.95036628,9.44663713 3.96374491,9.44663713 C4.27814289,9.44663713 4.57916224,9.40797422 4.87349226,9.33709223 C3.23460917,9.00201369 2.01715317,7.59726138 2.03722112,5.92186871 C2.03722112,5.90898107 2.03722112,5.88964962 2.03722112,5.87676198 C2.51885207,6.14095852 3.06737621,6.30205397 3.65603625,6.32782924 C2.69946368,5.69633508 2.07735704,4.63310511 2.09073567,3.43455497 C2.09742499,2.80306081 2.2780366,2.21022956 2.59243458,1.70116794 C4.33834676,3.80829642 6.96724902,5.21304873 9.94399585,5.38703182 C9.88379198,5.13572292 9.8570347,4.87152638 9.8570347,4.60088602 C9.86372402,2.71284736 11.4691605,1.18566251 13.4291309,1.18566251 M13.4291309,0 L13.4291309,0 C11.0009082,0 8.96735531,1.7591623 8.65295733,4.02738623 C6.65285104,3.60853806 4.84004567,2.53242046 3.54231783,0.966572694 C3.30819168,0.683044704 2.94696847,0.521949255 2.57905594,0.521949255 C2.55229866,0.521949255 2.52554139,0.521949255 2.49878412,0.521949255 C2.09742499,0.547724527 1.72951246,0.766814337 1.52214358,1.10189287 C1.08733787,1.80426903 0.853211711,2.60974627 0.839833073,3.42811116 C0.833143755,3.99516714 0.933483536,4.54289166 1.12747378,5.0583971 C0.920104898,5.26459928 0.793007842,5.54168345 0.786318524,5.83809907 L0.786318524,5.90898107 C0.772939886,7.11397503 1.24788152,8.24164317 2.04391044,9.08578333 C1.99039589,9.29842932 1.99039589,9.51751913 2.05728908,9.73660894 C2.33824047,10.6065244 2.86000733,11.3475634 3.54900715,11.9081756 C3.1008228,12.0112767 2.63925981,12.0628272 2.1710075,12.0628272 L2.10411431,12.0628272 C1.86329884,12.0628272 1.62917268,12.0434958 1.39504653,12.0177205 C1.33484266,12.0112767 1.28132811,12.0048329 1.23450288,12.0048329 C0.726114655,12.0048329 0.257862345,12.3076923 0.0772507398,12.7845348 C-0.123428822,13.3064841 0.0772507398,13.8864277 0.558881687,14.195731 C2.39175502,15.3556182 4.51226905,15.9742247 6.70636559,16 L6.84684128,16 C13.8639366,16 18.1451006,10.5420862 18.2655083,5.21949255 C18.8608577,4.74265002 19.3826246,4.19492549 19.8241196,3.57631897 C19.9712846,3.37656061 20.0649351,3.13169553 20.0649351,2.86105518 C20.0649351,2.45509464 19.8508769,2.09424084 19.5297896,1.87515103 C19.5297896,1.86870721 19.5364789,1.86226339 19.5364789,1.86226339 C19.6970225,1.39186468 19.5431682,0.876359243 19.1418091,0.567055981 C18.9143722,0.393072896 18.6401102,0.302859444 18.3591588,0.302859444 C18.1451006,0.302859444 17.9310424,0.354409988 17.7437415,0.463954893 C17.3290037,0.69593234 16.8875087,0.876359243 16.4259457,1.0052356 C15.5897808,0.373741442 14.5529364,0.0128876359 13.4826454,0 L13.4291309,0 L13.4291309,0 L13.4291309,0 Z" id="Shape"></path>
                        </g>
                    </g>
                </g>
            </g>
        </g>
    </g>
</svg>